<mxfile host="65bd71144e">
    <diagram name="Page-1" id="NFMWR112_IOaDHqqo_eC">
        <mxGraphModel dx="306" dy="188" grid="1" gridSize="10" guides="1" tooltips="1" connect="1" arrows="1" fold="1" page="1" pageScale="1" pageWidth="1169" pageHeight="826" math="0" shadow="0">
            <root>
                <mxCell id="0"/>
                <mxCell id="1" parent="0"/>
                <mxCell id="og_aZqBgIQwPUAflNvb4-1" value="login" style="shape=mxgraph.uml25.behaviorAction;html=1;rounded=1;absoluteArcSize=1;arcSize=10;align=left;spacingLeft=5;whiteSpace=wrap;labelBackgroundColor=none;" parent="1" vertex="1">
                    <mxGeometry x="395" y="160" width="190" height="60" as="geometry"/>
                </mxCell>
                <mxCell id="og_aZqBgIQwPUAflNvb4-2" value="" style="ellipse;html=1;shape=startState;labelBackgroundColor=none;" parent="1" vertex="1">
                    <mxGeometry x="475" y="80" width="30" height="30" as="geometry"/>
                </mxCell>
                <mxCell id="og_aZqBgIQwPUAflNvb4-3" value="" style="edgeStyle=orthogonalEdgeStyle;html=1;verticalAlign=bottom;endArrow=open;endSize=8;rounded=0;entryX=0.495;entryY=-0.017;entryDx=0;entryDy=0;entryPerimeter=0;labelBackgroundColor=none;fontColor=default;" parent="1" source="og_aZqBgIQwPUAflNvb4-2" target="og_aZqBgIQwPUAflNvb4-1" edge="1">
                    <mxGeometry relative="1" as="geometry">
                        <mxPoint x="490" y="110" as="targetPoint"/>
                    </mxGeometry>
                </mxCell>
                <mxCell id="og_aZqBgIQwPUAflNvb4-4" value="List all inquries" style="rounded=1;whiteSpace=wrap;html=1;arcSize=40;labelBackgroundColor=none;" parent="1" vertex="1">
                    <mxGeometry x="430" y="260" width="120" height="40" as="geometry"/>
                </mxCell>
                <mxCell id="og_aZqBgIQwPUAflNvb4-5" value="" style="edgeStyle=orthogonalEdgeStyle;html=1;verticalAlign=bottom;endArrow=open;endSize=8;rounded=0;entryX=0.5;entryY=0;entryDx=0;entryDy=0;labelBackgroundColor=none;fontColor=default;" parent="1" source="og_aZqBgIQwPUAflNvb4-4" target="og_aZqBgIQwPUAflNvb4-7" edge="1">
                    <mxGeometry relative="1" as="geometry">
                        <mxPoint x="490" y="360" as="targetPoint"/>
                    </mxGeometry>
                </mxCell>
                <mxCell id="og_aZqBgIQwPUAflNvb4-7" value="Select inquire" style="rounded=1;whiteSpace=wrap;html=1;arcSize=40;labelBackgroundColor=none;" parent="1" vertex="1">
                    <mxGeometry x="430" y="360" width="120" height="40" as="geometry"/>
                </mxCell>
                <mxCell id="og_aZqBgIQwPUAflNvb4-8" value="" style="edgeStyle=orthogonalEdgeStyle;html=1;verticalAlign=bottom;endArrow=open;endSize=8;rounded=0;entryX=0.5;entryY=0;entryDx=0;entryDy=0;labelBackgroundColor=none;fontColor=default;" parent="1" source="og_aZqBgIQwPUAflNvb4-7" target="og_aZqBgIQwPUAflNvb4-9" edge="1">
                    <mxGeometry relative="1" as="geometry">
                        <mxPoint x="490" y="450" as="targetPoint"/>
                    </mxGeometry>
                </mxCell>
                <mxCell id="og_aZqBgIQwPUAflNvb4-9" value="" style="rhombus;labelBackgroundColor=none;" parent="1" vertex="1">
                    <mxGeometry x="475" y="450" width="30" height="30" as="geometry"/>
                </mxCell>
                <mxCell id="og_aZqBgIQwPUAflNvb4-10" value="Delete" style="rounded=1;whiteSpace=wrap;html=1;arcSize=40;labelBackgroundColor=none;" parent="1" vertex="1">
                    <mxGeometry x="320" y="500" width="120" height="40" as="geometry"/>
                </mxCell>
                <mxCell id="og_aZqBgIQwPUAflNvb4-11" value="" style="edgeStyle=orthogonalEdgeStyle;html=1;verticalAlign=bottom;endArrow=open;endSize=8;rounded=0;entryX=0.5;entryY=0;entryDx=0;entryDy=0;labelBackgroundColor=none;fontColor=default;" parent="1" source="og_aZqBgIQwPUAflNvb4-10" target="og_aZqBgIQwPUAflNvb4-13" edge="1">
                    <mxGeometry relative="1" as="geometry">
                        <mxPoint x="380" y="600" as="targetPoint"/>
                    </mxGeometry>
                </mxCell>
                <mxCell id="og_aZqBgIQwPUAflNvb4-12" value="" style="edgeStyle=orthogonalEdgeStyle;html=1;verticalAlign=bottom;endArrow=open;endSize=8;rounded=0;exitX=0;exitY=0.5;exitDx=0;exitDy=0;labelBackgroundColor=none;fontColor=default;" parent="1" source="og_aZqBgIQwPUAflNvb4-9" target="og_aZqBgIQwPUAflNvb4-10" edge="1">
                    <mxGeometry relative="1" as="geometry">
                        <mxPoint x="379.71" y="500" as="targetPoint"/>
                        <mxPoint x="379.71" y="440" as="sourcePoint"/>
                    </mxGeometry>
                </mxCell>
                <mxCell id="og_aZqBgIQwPUAflNvb4-13" value="Confirm action" style="rounded=1;whiteSpace=wrap;html=1;arcSize=40;labelBackgroundColor=none;" parent="1" vertex="1">
                    <mxGeometry x="320" y="580" width="120" height="40" as="geometry"/>
                </mxCell>
                <mxCell id="og_aZqBgIQwPUAflNvb4-14" value="" style="edgeStyle=orthogonalEdgeStyle;html=1;verticalAlign=bottom;endArrow=open;endSize=8;rounded=0;entryX=0;entryY=0.5;entryDx=0;entryDy=0;labelBackgroundColor=none;fontColor=default;" parent="1" source="og_aZqBgIQwPUAflNvb4-13" target="og_aZqBgIQwPUAflNvb4-20" edge="1">
                    <mxGeometry relative="1" as="geometry">
                        <mxPoint x="380" y="710" as="targetPoint"/>
                        <Array as="points">
                            <mxPoint x="380" y="655"/>
                        </Array>
                    </mxGeometry>
                </mxCell>
                <mxCell id="og_aZqBgIQwPUAflNvb4-15" value="Type the reply" style="rounded=1;whiteSpace=wrap;html=1;arcSize=40;labelBackgroundColor=none;" parent="1" vertex="1">
                    <mxGeometry x="540" y="500" width="120" height="40" as="geometry"/>
                </mxCell>
                <mxCell id="og_aZqBgIQwPUAflNvb4-16" value="" style="edgeStyle=orthogonalEdgeStyle;html=1;verticalAlign=bottom;endArrow=open;endSize=8;rounded=0;entryX=0.5;entryY=0;entryDx=0;entryDy=0;labelBackgroundColor=none;fontColor=default;" parent="1" source="og_aZqBgIQwPUAflNvb4-15" target="og_aZqBgIQwPUAflNvb4-18" edge="1">
                    <mxGeometry relative="1" as="geometry">
                        <mxPoint x="600" y="600" as="targetPoint"/>
                    </mxGeometry>
                </mxCell>
                <mxCell id="og_aZqBgIQwPUAflNvb4-17" value="" style="edgeStyle=orthogonalEdgeStyle;html=1;verticalAlign=bottom;endArrow=open;endSize=8;rounded=0;exitX=1;exitY=0.5;exitDx=0;exitDy=0;labelBackgroundColor=none;fontColor=default;" parent="1" source="og_aZqBgIQwPUAflNvb4-9" target="og_aZqBgIQwPUAflNvb4-15" edge="1">
                    <mxGeometry relative="1" as="geometry">
                        <mxPoint x="565" y="500" as="targetPoint"/>
                        <mxPoint x="564.71" y="440" as="sourcePoint"/>
                    </mxGeometry>
                </mxCell>
                <mxCell id="og_aZqBgIQwPUAflNvb4-18" value="Send the reply" style="rounded=1;whiteSpace=wrap;html=1;arcSize=40;labelBackgroundColor=none;" parent="1" vertex="1">
                    <mxGeometry x="540" y="580" width="120" height="40" as="geometry"/>
                </mxCell>
                <mxCell id="og_aZqBgIQwPUAflNvb4-19" value="" style="edgeStyle=orthogonalEdgeStyle;html=1;verticalAlign=bottom;endArrow=open;endSize=8;rounded=0;entryX=1;entryY=0.5;entryDx=0;entryDy=0;labelBackgroundColor=none;fontColor=default;" parent="1" source="og_aZqBgIQwPUAflNvb4-18" target="og_aZqBgIQwPUAflNvb4-20" edge="1">
                    <mxGeometry relative="1" as="geometry">
                        <mxPoint x="600" y="710" as="targetPoint"/>
                        <Array as="points">
                            <mxPoint x="600" y="655"/>
                        </Array>
                    </mxGeometry>
                </mxCell>
                <mxCell id="og_aZqBgIQwPUAflNvb4-20" value="" style="rhombus;labelBackgroundColor=none;" parent="1" vertex="1">
                    <mxGeometry x="475" y="640" width="30" height="30" as="geometry"/>
                </mxCell>
                <mxCell id="og_aZqBgIQwPUAflNvb4-22" value="" style="edgeStyle=orthogonalEdgeStyle;html=1;verticalAlign=bottom;endArrow=open;endSize=8;rounded=0;exitX=0.5;exitY=1;exitDx=0;exitDy=0;entryX=0.5;entryY=0;entryDx=0;entryDy=0;labelBackgroundColor=none;fontColor=default;" parent="1" source="og_aZqBgIQwPUAflNvb4-20" target="2" edge="1">
                    <mxGeometry relative="1" as="geometry">
                        <mxPoint x="490" y="700" as="targetPoint"/>
                        <mxPoint x="489.71" y="680" as="sourcePoint"/>
                    </mxGeometry>
                </mxCell>
                <mxCell id="og_aZqBgIQwPUAflNvb4-25" value="" style="edgeStyle=orthogonalEdgeStyle;html=1;verticalAlign=bottom;endArrow=open;endSize=8;rounded=0;labelBackgroundColor=none;fontColor=default;" parent="1" source="og_aZqBgIQwPUAflNvb4-1" target="og_aZqBgIQwPUAflNvb4-4" edge="1">
                    <mxGeometry relative="1" as="geometry">
                        <mxPoint x="489.71" y="260" as="targetPoint"/>
                        <mxPoint x="489.71" y="220" as="sourcePoint"/>
                    </mxGeometry>
                </mxCell>
                <mxCell id="2" value="" style="ellipse;html=1;shape=endState;fillColor=strokeColor;" vertex="1" parent="1">
                    <mxGeometry x="475" y="700" width="30" height="30" as="geometry"/>
                </mxCell>
            </root>
        </mxGraphModel>
    </diagram>
</mxfile>